<?xml version="1.0" encoding="UTF-8" standalone="no"?>
<svg
   width="24"
   height="24"
   viewBox="0 0 24 24"
   fill="none"
   stroke="currentColor"
   stroke-width="2"
   stroke-linecap="round"
   stroke-linejoin="round"
   class="feather feather-repeat"
   version="1.1"
   id="svg2"
   sodipodi:docname="no-repeat.svg"
   inkscape:version="1.4.3 (0d15f75042, 2025-12-25)"
   xmlns:inkscape="http://www.inkscape.org/namespaces/inkscape"
   xmlns:sodipodi="http://sodipodi.sourceforge.net/DTD/sodipodi-0.dtd"
   xmlns="http://www.w3.org/2000/svg"
   xmlns:svg="http://www.w3.org/2000/svg">
  <defs
     id="defs2" />
  <sodipodi:namedview
     id="namedview2"
     pagecolor="#ffffff"
     bordercolor="#000000"
     borderopacity="0.25"
     inkscape:showpageshadow="2"
     inkscape:pageopacity="0.0"
     inkscape:pagecheckerboard="0"
     inkscape:deskcolor="#d1d1d1"
     inkscape:zoom="34.291667"
     inkscape:cx="12.043742"
     inkscape:cy="12"
     inkscape:window-width="1910"
     inkscape:window-height="1009"
     inkscape:window-x="0"
     inkscape:window-y="35"
     inkscape:window-maximized="1"
     inkscape:current-layer="svg2" />
  <polyline
     points="17 1 21 5 17 9"
     id="polyline1" />
  <path
     d="M3 11V9a4 4 0 0 1 4-4h14"
     id="path1" />
  <polyline
     points="7 23 3 19 7 15"
     id="polyline2" />
  <path
     d="M21 13v2a4 4 0 0 1-4 4H3"
     id="path2" />
  <text
     xml:space="preserve"
     style="font-size:12.4863px;font-family:Arial;-inkscape-font-specification:Arial;writing-mode:lr-tb;direction:ltr;fill:#f9f9f9;stroke:#000000;stroke-width:0.1;stroke-dasharray:none"
     x="8.2870026"
     y="17.203144"
     id="text4"
     transform="scale(1.0629271,0.94079831)"><tspan
       sodipodi:role="line"
       id="tspan4"
       x="8.2870026"
       y="17.203144"
       style="stroke-width:0.1;stroke-dasharray:none">1</tspan></text>
  <path
     style="fill:#ffffff;stroke:#000000;stroke-width:0.1;stroke-dasharray:none"
     d="M 2.7349513,11.944873 C 2.5322469,11.87862 2.3531005,11.757484 2.2328577,11.605366 2.0197733,11.335794 2.0213393,11.350566 2.0344526,9.7338147 2.0453647,8.3884608 2.0501668,8.2784165 2.1094899,8.0142763 2.5613433,6.0023668 4.0421868,4.5312601 6.0441728,4.1054651 l 0.3130568,-0.066583 6.1372674,-0.00776 6.137267,-0.00776 -1.226483,-1.2316107 C 16.453699,1.8361953 16.163221,1.5274648 16.109297,1.4143378 16.009539,1.2050557 15.997839,0.88798058 16.08164,0.66483698 c 0.07718,-0.20550363 0.283202,-0.4401832 0.469163,-0.53441685 0.269835,-0.13673587 0.626724,-0.13922422 0.888482,-0.006195 0.09052,0.046006 0.774592,0.70937956 2.247945,2.17994367 2.394856,2.3903226 2.285992,2.2618835 2.285992,2.6970461 0,0.434915 0.110844,0.3044757 -2.307928,2.7159385 -2.030798,2.0246613 -2.14772,2.1358324 -2.307943,2.1944107 -0.37683,0.1377709 -0.762509,0.053679 -1.043767,-0.2275789 C 16.032039,9.4024403 15.947993,9.0162185 16.08645,8.640219 16.14444,8.4827332 16.231644,8.3880712 17.39035,7.2247874 l 1.241753,-1.2466586 -5.860402,2.391e-4 C 9.1440773,5.9785161 6.8168617,5.9894697 6.6634265,6.0071181 5.3608887,6.1569373 4.3477379,7.0761857 4.0467773,8.3812468 4.0079283,8.549709 3.9960057,8.8343113 3.9825274,9.9149453 l -0.016549,1.3268527 -0.077219,0.164704 c -0.1565262,0.333862 -0.4740867,0.549083 -0.8386271,0.568364 -0.1125881,0.006 -0.2432316,-0.0065 -0.3151809,-0.02999 z"
     id="path4" />
  <path
     style="fill:#ffffff;stroke:#000000;stroke-width:0.1;stroke-dasharray:none"
     d="M 6.839571,23.963973 C 6.7520037,23.951006 6.6175241,23.904597 6.5407279,23.860842 6.4499248,23.809107 5.6656817,23.047075 4.2980194,21.681652 1.9196265,19.307154 2.0267775,19.433724 2.0267775,18.998785 c 0,-0.434915 -0.1108436,-0.304476 2.3079281,-2.715939 2.0307981,-2.024661 2.1477206,-2.135832 2.3079435,-2.19441 0.3768304,-0.137771 0.7625086,-0.05368 1.0437665,0.227579 0.2813951,0.281395 0.3654654,0.667334 0.2273666,1.043766 -0.057844,0.157672 -0.1436303,0.250774 -1.3042067,1.415432 l -1.2422899,1.246658 5.8607074,-2.39e-4 c 3.627823,-1.48e-4 5.955145,-0.0111 6.108581,-0.02875 1.301626,-0.149715 2.315899,-1.069981 2.616649,-2.374129 0.03885,-0.168462 0.05077,-0.453064 0.06425,-1.533698 l 0.01655,-1.326853 0.07722,-0.164704 c 0.09834,-0.209759 0.277387,-0.388795 0.487117,-0.487094 0.23925,-0.112135 0.560556,-0.110283 0.806259,0.0046 0.225337,0.105405 0.429176,0.320299 0.510828,0.538533 0.06038,0.161368 0.06142,0.195045 0.04973,1.609378 -0.01176,1.422854 -0.01306,1.449381 -0.08612,1.765338 -0.102248,0.442156 -0.2023,0.729968 -0.390172,1.122374 -0.678845,1.417891 -1.93682,2.39652 -3.534421,2.749566 l -0.282525,0.06243 -6.151785,0.009 -6.1517841,0.009 1.2264192,1.231547 c 1.364899,1.370606 1.3578177,1.36164 1.3757214,1.741875 0.013218,0.280715 -0.062031,0.492796 -0.2483985,0.700081 -0.2268776,0.252343 -0.5415645,0.364203 -0.882534,0.31371 z"
     id="path5" />
  <path
     style="fill:#ff00ff;stroke:#000000;stroke-width:0.00291616"
     d="M 2.5971313,11.806041 C 2.3465993,11.675764 2.176009,11.469217 2.1280185,11.238048 2.0722629,10.969474 2.1080137,8.3051792 2.1710116,8.0340332 2.634054,6.0410752 4.0720151,4.6141758 6.0646807,4.1703172 c 0.2541352,-0.056608 0.4150052,-0.058548 6.4442743,-0.077709 5.426059,-0.017244 6.183633,-0.024929 6.183633,-0.062733 0,-0.023694 -0.543023,-0.5906228 -1.206718,-1.2598408 -0.720758,-0.7267555 -1.240418,-1.2740952 -1.290401,-1.3591327 -0.07546,-0.1283757 -0.08366,-0.1681756 -0.08347,-0.4048273 1.73e-4,-0.21717883 0.01171,-0.28406123 0.06688,-0.38770525 0.102624,-0.19280369 0.257138,-0.34614864 0.43856,-0.43524153 0.225669,-0.11082127 0.533012,-0.11492782 0.748303,-0.009998 0.114436,0.0557745 0.589035,0.51379894 2.205829,2.12879708 1.133011,1.1317528 2.117215,2.1354185 2.18712,2.2303678 0.12379,0.1681402 0.127361,0.1792298 0.137134,0.4259163 0.0126,0.3180102 -0.01897,0.3856365 -0.354723,0.7598091 -0.339116,0.3779244 -3.847792,3.8681382 -4.035319,4.0140862 -0.437233,0.3402889 -1.063108,0.1717963 -1.323026,-0.3561725 -0.08419,-0.1710194 -0.09091,-0.2056637 -0.08038,-0.4143289 0.0073,-0.144168 0.03209,-0.2704984 0.06763,-0.3443513 0.03588,-0.074559 0.501087,-0.5646888 1.289356,-1.3584161 0.678277,-0.6829732 1.233231,-1.2641216 1.233231,-1.2914405 0,-0.046661 -0.368035,-0.049049 -6.072904,-0.039409 C 7.1068438,5.937304 6.528957,5.9426679 6.3535199,5.986152 5.7225594,6.142543 5.2923094,6.3745414 4.8631444,6.7897883 4.5907039,7.0533935 4.3838646,7.3457012 4.2145189,7.7064332 3.9924263,8.1795242 3.9663542,8.3155882 3.9366158,9.1567435 3.9221562,9.565735 3.9097247,10.19633 3.9089903,10.558065 c -0.00131,0.645938 -0.00267,0.660381 -0.075999,0.807532 -0.092198,0.185016 -0.2619222,0.363362 -0.4271705,0.448869 -0.091449,0.04732 -0.1918744,0.06805 -0.3730138,0.07699 -0.2357571,0.01164 -0.2570538,0.0075 -0.4356755,-0.08542 z"
     id="path3" />
  <path
     style="fill:#ff00ff;stroke:#000000;stroke-width:0.00291616"
     d="M 6.7275315,23.86718 C 6.6123125,23.830321 6.498654,23.73792 6.0859762,23.345612 5.2784695,22.577965 2.3546155,19.62589 2.2291215,19.451532 L 2.1142163,19.291885 v -0.294633 -0.294633 l 0.1274025,-0.172695 c 0.070071,-0.09498 1.0542755,-1.098828 2.1871202,-2.230768 1.6222952,-1.621 2.0906831,-2.073093 2.2055258,-2.128797 0.2010182,-0.0975 0.5243382,-0.09975 0.7166631,-0.005 0.2136761,0.105296 0.3662181,0.255337 0.4663223,0.458678 0.084192,0.171019 0.090913,0.205663 0.080374,0.414329 -0.00728,0.144168 -0.032091,0.270498 -0.067626,0.344351 -0.035875,0.07456 -0.5010874,0.564689 -1.2893564,1.358416 -0.6782768,0.682973 -1.2332305,1.264149 -1.2332305,1.291501 0,0.04674 0.3650817,0.04911 6.0729037,0.03934 5.501036,-0.0094 6.090753,-0.01488 6.262454,-0.05804 0.665109,-0.167213 1.129032,-0.424573 1.55043,-0.860096 0.265196,-0.274084 0.428812,-0.512017 0.593814,-0.863535 0.220438,-0.46962 0.246668,-0.60696 0.27637,-1.447075 0.01446,-0.408991 0.02689,-1.039586 0.02763,-1.401321 0.0013,-0.640506 0.0032,-0.661499 0.07372,-0.802953 0.09535,-0.19135 0.286427,-0.382672 0.467108,-0.467717 0.206157,-0.09704 0.523607,-0.09639 0.73383,0.0015 0.195844,0.09118 0.376475,0.274242 0.468107,0.474393 l 0.07326,0.160031 -0.01362,1.477334 -0.01362,1.477334 -0.103719,0.393681 c -0.484635,1.83951 -1.805516,3.14721 -3.665915,3.629333 l -0.379714,0.0984 -6.211514,0.02144 c -5.5815108,0.01927 -6.2115137,0.02603 -6.2115137,0.06664 0,0.02486 0.5161653,0.564195 1.1470343,1.198527 1.1872115,1.193728 1.3609735,1.385205 1.4203667,1.565168 0.051422,0.155811 0.02205,0.493999 -0.056156,0.646585 -0.2107494,0.411184 -0.6761671,0.618295 -1.0911251,0.48555 z"
     id="path6" />
  <path
     style="fill:#ff00ff;stroke:#000000;stroke-width:0.00291616"
     d="m 12.656136,12.844771 c 0,-2.793552 -0.0061,-3.2839369 -0.04103,-3.2973391 -0.02257,-0.00866 -0.117705,0.043412 -0.211422,0.1157132 -0.440842,0.3401039 -1.374339,0.8399329 -1.971123,1.0554139 l -0.109356,0.03949 7.84e-4,-0.428841 7.85e-4,-0.4288396 0.429349,-0.2093821 C 11.666119,9.2462297 12.49646,8.5955757 12.921875,7.9923375 l 0.12484,-0.1770237 h 0.315037 0.315037 v 4.1555282 4.155529 h -0.510328 -0.510328 z"
     id="path7" />
</svg>
